<?xml version="1.0" encoding="UTF-8"?>
<svg width="12px" height="13px" viewBox="0 0 12 13" version="1.1" xmlns="http://www.w3.org/2000/svg" xmlns:xlink="http://www.w3.org/1999/xlink">
    <title>Combined Shape</title>
    <g id="My-Documents" stroke="none" stroke-width="1" fill="none" fill-rule="evenodd">
        <g id="My-Documents---Document-menu" transform="translate(-399.000000, -350.000000)" fill="#FFFFFF">
            <g id="Group-12" transform="translate(379.000000, 153.000000)">
                <g id="Group-6">
                    <path d="M26.3338346,197 C27.043609,197 27.7142857,197.098617 28.3458647,197.29585 C28.9774436,197.493083 29.5428571,197.780232 30.0421053,198.157296 C30.5413534,198.53436 30.9533835,199.001339 31.2781955,199.558233 C31.6030075,200.115127 31.8075188,200.753235 31.8917293,201.472557 L31.8917293,201.472557 L29.1488722,201.472557 C29.1007519,201.159304 28.9924812,200.872155 28.8240602,200.611111 C28.6556391,200.350067 28.4451128,200.120928 28.1924812,199.923695 C27.9398496,199.726461 27.6541353,199.572735 27.3353383,199.462517 C27.0165414,199.352298 26.6827068,199.297189 26.3338346,199.297189 C25.6962406,199.297189 25.1548872,199.416109 24.7097744,199.653949 C24.2646617,199.891789 23.9037594,200.210843 23.6270677,200.611111 C23.3503759,201.011379 23.1488722,201.466756 23.0225564,201.977242 C22.8962406,202.487729 22.8330827,203.015618 22.8330827,203.56091 C22.8330827,204.082999 22.8962406,204.590585 23.0225564,205.083668 C23.1488722,205.576751 23.3503759,206.020527 23.6270677,206.414993 C23.9037594,206.80946 24.2646617,207.125614 24.7097744,207.363454 C25.1548872,207.601294 25.6962406,207.720214 26.3338346,207.720214 C27.2,207.720214 27.8766917,207.464971 28.3639098,206.954485 C28.8511278,206.443998 29.1488722,205.771084 29.2571429,204.935743 L29.2571429,204.935743 L32,204.935743 C31.9278195,205.713075 31.7413534,206.414993 31.4406015,207.041499 C31.1398496,207.668005 30.7428571,208.201696 30.2496241,208.64257 C29.756391,209.083445 29.1789474,209.419902 28.5172932,209.651941 C27.8556391,209.88398 27.1278195,210 26.3338346,210 C26.0868627,210 25.8461117,209.989637 25.6115816,209.968912 L20.0403892,204.372945 C20.0134631,204.107947 20,203.837269 20,203.56091 C20,202.632753 20.1443609,201.771307 20.4330827,200.976573 C20.7218045,200.181838 21.1368421,199.488621 21.6781955,198.896921 C22.2195489,198.305221 22.8842105,197.841142 23.6721805,197.504685 C24.4601504,197.168228 25.3473684,197 26.3338346,197 Z" id="Combined-Shape"></path>
                </g>
            </g>
        </g>
    </g>
</svg>